<svg xmlns="http://www.w3.org/2000/svg" viewBox="0 0 100 100">
  <!-- Chip body -->
  <rect x="20" y="20" width="60" height="60" rx="4" fill="#2c3e50"/>
  <rect x="25" y="25" width="50" height="50" rx="2" fill="#34495e"/>
  
  <!-- Inner chip details -->
  <rect x="30" y="30" width="40" height="40" rx="2" fill="#2c3e50" opacity="0.6"/>
  <line x1="35" y1="40" x2="65" y2="40" stroke="#ff9a56" stroke-width="1.5"/>
  <line x1="35" y1="50" x2="65" y2="50" stroke="#ff9a56" stroke-width="1.5"/>
  <line x1="35" y1="60" x2="65" y2="60" stroke="#ff9a56" stroke-width="1.5"/>
  
  <!-- Pins/Connections on all sides -->
  <!-- Top pins -->
  <rect x="30" y="10" width="8" height="10" fill="#ff9a56"/>
  <rect x="45" y="10" width="8" height="10" fill="#ff9a56"/>
  <rect x="62" y="10" width="8" height="10" fill="#ff9a56"/>
  
  <!-- Bottom pins -->
  <rect x="30" y="80" width="8" height="10" fill="#ff9a56"/>
  <rect x="45" y="80" width="8" height="10" fill="#ff9a56"/>
  <rect x="62" y="80" width="8" height="10" fill="#ff9a56"/>
  
  <!-- Left pins -->
  <rect x="10" y="30" width="10" height="8" fill="#ff9a56"/>
  <rect x="10" y="45" width="10" height="8" fill="#ff9a56"/>
  <rect x="10" y="62" width="10" height="8" fill="#ff9a56"/>
  
  <!-- Right pins -->
  <rect x="80" y="30" width="10" height="8" fill="#ff9a56"/>
  <rect x="80" y="45" width="10" height="8" fill="#ff9a56"/>
  <rect x="80" y="62" width="10" height="8" fill="#ff9a56"/>
</svg>
